<?xml version="1.0" encoding="UTF-8"?>
<svg id="_x32_" xmlns="http://www.w3.org/2000/svg" xmlns:xlink="http://www.w3.org/1999/xlink" version="1.1" viewBox="0 0 2000 2000">
  <!-- Generator: Adobe Illustrator 29.5.0, SVG Export Plug-In . SVG Version: 2.1.0 Build 137)  -->
  <defs>
    <style>
      .st0 {
        fill: url(#linear-gradient2);
      }

      .st1 {
        fill: url(#linear-gradient1);
      }

      .st2 {
        fill: url(#linear-gradient9);
      }

      .st3 {
        fill: url(#linear-gradient3);
      }

      .st4 {
        fill: url(#linear-gradient6);
      }

      .st5 {
        fill: url(#linear-gradient8);
      }

      .st6 {
        fill: url(#linear-gradient7);
      }

      .st7 {
        fill: url(#linear-gradient5);
      }

      .st8 {
        fill: url(#linear-gradient4);
      }

      .st9 {
        fill: url(#linear-gradient13);
      }

      .st10 {
        fill: url(#linear-gradient12);
      }

      .st11 {
        fill: url(#linear-gradient15);
      }

      .st12 {
        fill: url(#linear-gradient16);
      }

      .st13 {
        fill: url(#linear-gradient11);
      }

      .st14 {
        fill: url(#linear-gradient10);
      }

      .st15 {
        fill: url(#linear-gradient17);
      }

      .st16 {
        fill: url(#linear-gradient14);
      }

      .st17 {
        fill: url(#linear-gradient);
      }
    </style>
    <linearGradient id="linear-gradient" x1="780.46" y1="1678.43" x2="1228.34" y2="1678.43" gradientUnits="userSpaceOnUse">
      <stop offset="0" stop-color="#0074ae"/>
      <stop offset="1" stop-color="#8bc53f"/>
    </linearGradient>
    <linearGradient id="linear-gradient1" x1="780.46" y1="1679.33" x2="1228.34" y2="1679.33" xlink:href="#linear-gradient"/>
    <linearGradient id="linear-gradient2" x1="780.46" y1="1678.43" x2="1228.34" y2="1678.43" xlink:href="#linear-gradient"/>
    <linearGradient id="linear-gradient3" x1="780.46" x2="1228.34" xlink:href="#linear-gradient"/>
    <linearGradient id="linear-gradient4" x1="780.46" y1="1678.43" x2="1228.34" y2="1678.43" xlink:href="#linear-gradient"/>
    <linearGradient id="linear-gradient5" x1="780.46" x2="1228.34" xlink:href="#linear-gradient"/>
    <linearGradient id="linear-gradient6" x1="720.93" y1="851.16" x2="1268.38" y2="851.16" gradientTransform="translate(898.18 -466.08) rotate(45)" xlink:href="#linear-gradient"/>
    <linearGradient id="linear-gradient7" x1="720.93" y1="515.41" x2="1268.37" y2="515.41" xlink:href="#linear-gradient"/>
    <linearGradient id="linear-gradient8" x1="720.93" y1="561.41" x2="1268.37" y2="561.41" xlink:href="#linear-gradient"/>
    <linearGradient id="linear-gradient9" x1="720.93" y1="923.65" x2="1268.37" y2="923.65" xlink:href="#linear-gradient"/>
    <linearGradient id="linear-gradient10" x1="720.93" y1="851.16" x2="1268.38" y2="851.16" xlink:href="#linear-gradient"/>
    <linearGradient id="linear-gradient11" x1="720.93" y1="968.61" x2="1268.38" y2="968.61" xlink:href="#linear-gradient"/>
    <linearGradient id="linear-gradient12" x1="720.93" y1="1285.29" x2="1268.38" y2="1285.29" xlink:href="#linear-gradient"/>
    <linearGradient id="linear-gradient13" x1="720.93" y1="697.05" x2="1268.37" y2="697.05" xlink:href="#linear-gradient"/>
    <linearGradient id="linear-gradient14" x1="720.93" y1="954.48" x2="1268.37" y2="954.48" xlink:href="#linear-gradient"/>
    <linearGradient id="linear-gradient15" x1="720.93" y1="420.11" x2="1268.37" y2="420.11" xlink:href="#linear-gradient"/>
    <linearGradient id="linear-gradient16" x1="720.93" y1="628.23" x2="1268.38" y2="628.23" xlink:href="#linear-gradient"/>
    <linearGradient id="linear-gradient17" x1="720.93" y1="1058.99" x2="1268.37" y2="1058.99" xlink:href="#linear-gradient"/>
  </defs>
  <g>
    <path class="st17" d="M668.39,1643.63v24.9h55.08v22.92h-55.08v44.69h-25.39v-115.43h87.89v22.92h-62.5Z"/>
    <path class="st1" d="M869.48,1708.77c-2.36,6.49-5.75,11.9-10.14,16.24-4.4,4.34-9.73,7.59-16,9.73-6.27,2.14-13.25,3.22-20.94,3.22-15.5,0-27.7-4.29-36.61-12.86-8.9-8.57-13.36-21.38-13.36-38.42v-65.96h25.39v65.3c0,9.46,2.2,16.57,6.6,21.35,4.4,4.78,10.5,7.17,18.3,7.17s13.91-2.31,18.3-6.93c4.4-4.62,6.6-11.54,6.6-20.78v-66.12h25.39v65.14c0,8.8-1.18,16.44-3.54,22.92Z"/>
    <path class="st0" d="M1002.33,1717.26c-2.08,4.45-4.97,8.19-8.68,11.21-3.72,3.02-8.15,5.33-13.3,6.93-5.15,1.59-10.86,2.39-17.12,2.39-8.8,0-17.43-1.51-25.89-4.53-8.47-3.02-16.16-7.67-23.09-13.93l15.01-17.97c5.28,4.29,10.69,7.7,16.24,10.22,5.55,2.53,11.62,3.79,18.22,3.79,5.28,0,9.37-.96,12.29-2.89,2.91-1.92,4.37-4.59,4.37-8v-.33c0-1.65-.3-3.11-.91-4.37-.61-1.26-1.76-2.45-3.47-3.54-1.71-1.1-4.08-2.2-7.11-3.3-3.03-1.1-6.97-2.25-11.82-3.46-5.84-1.43-11.13-3.02-15.87-4.78-4.74-1.76-8.76-3.93-12.07-6.51-3.31-2.58-5.87-5.8-7.69-9.65-1.82-3.85-2.73-8.63-2.73-14.35v-.33c0-5.28.98-10.03,2.95-14.26,1.97-4.23,4.72-7.89,8.27-10.96,3.55-3.08,7.79-5.44,12.72-7.09,4.93-1.65,10.36-2.47,16.3-2.47,8.46,0,16.24,1.27,23.33,3.79,7.09,2.53,13.6,6.16,19.54,10.88l-13.19,19.13c-5.17-3.52-10.22-6.29-15.17-8.33-4.95-2.03-9.89-3.05-14.84-3.05s-8.66.97-11.13,2.89c-2.47,1.93-3.71,4.32-3.71,7.17v.33c0,1.87.36,3.49,1.07,4.87.72,1.37,2.01,2.61,3.88,3.71,1.87,1.1,4.44,2.14,7.69,3.13,3.25.99,7.36,2.15,12.32,3.46,5.84,1.54,11.05,3.27,15.62,5.19,4.57,1.93,8.43,4.23,11.58,6.93,3.14,2.7,5.51,5.85,7.11,9.48,1.6,3.63,2.4,7.97,2.4,13.03v.33c0,5.72-1.04,10.8-3.11,15.25Z"/>
    <path class="st3" d="M1051.78,1736.14v-115.43h25.39v115.43h-25.39Z"/>
    <path class="st8" d="M1242.07,1701.59c-3.08,7.2-7.34,13.52-12.78,18.96-5.44,5.44-11.93,9.73-19.46,12.86-7.53,3.13-15.75,4.7-24.65,4.7s-17.09-1.57-24.57-4.7c-7.48-3.13-13.94-7.36-19.38-12.7-5.44-5.33-9.67-11.6-12.7-18.8-3.02-7.2-4.54-14.92-4.54-23.17v-.33c0-8.25,1.54-15.97,4.62-23.17,3.08-7.2,7.34-13.52,12.78-18.96,5.44-5.44,11.93-9.73,19.46-12.86,7.53-3.13,15.75-4.7,24.65-4.7s17.09,1.57,24.57,4.7c7.48,3.13,13.94,7.37,19.38,12.7,5.44,5.33,9.67,11.6,12.7,18.8,3.02,7.2,4.53,14.92,4.53,23.17v.33c0,8.24-1.54,15.97-4.62,23.17ZM1220.14,1678.43c0-4.95-.85-9.62-2.56-14.02s-4.12-8.25-7.25-11.54c-3.13-3.3-6.84-5.91-11.13-7.83-4.29-1.92-8.96-2.89-14.02-2.89s-9.87.94-14.1,2.8c-4.23,1.87-7.86,4.45-10.88,7.75-3.02,3.3-5.39,7.12-7.09,11.46-1.71,4.34-2.56,8.99-2.56,13.93v.33c0,4.95.85,9.62,2.56,14.02,1.7,4.4,4.12,8.24,7.25,11.54,3.13,3.3,6.82,5.91,11.05,7.83,4.23,1.92,8.93,2.89,14.1,2.89s9.73-.93,14.02-2.8,7.94-4.45,10.96-7.75c3.02-3.3,5.39-7.12,7.09-11.46,1.7-4.34,2.56-8.99,2.56-13.93v-.33Z"/>
    <path class="st7" d="M1373.33,1736.14l-55.9-73.38v73.38h-25.06v-115.43h23.42l54.09,71.07v-71.07h25.06v115.43h-21.6Z"/>
  </g>
  <g>
    <circle class="st4" cx="1011.7" cy="851.16" r="182.59" transform="translate(-305.54 964.68) rotate(-45)"/>
    <g>
      <path class="st6" d="M957.76,534.47c13.98-.44,28.11-.59,42.24-.59,22.08,0,44.01.44,65.65,1.47-17.96-13.98-36.06-27.38-54.17-39.89-17.96,12.36-35.77,25.46-53.72,39.01Z"/>
      <path class="st5" d="M1475.87,618.52c5.3-14.42,9.86-28.41,13.69-41.95-81.25-33.71-175.3-58.14-276.72-72.27,19.72,17.37,39.01,35.47,58.14,54.31,74.48,14.13,143.66,34.3,204.89,59.91Z"/>
      <path class="st2" d="M1596.86,631.03c-3.24,10.75-6.92,21.49-10.89,32.53-1.32,3.39-2.5,6.77-3.83,10.3,24.29,16.04,45.33,32.82,62.7,50.19,40.48,40.33,61.67,84.19,61.67,128.94,0,61.97-40.62,122.02-116.28,173.68-5.15,3.68-10.45,7.07-15.9,10.6-5.15,3.24-10.6,6.48-16.04,9.57-12.51,7.36-25.91,14.57-40.04,21.49-3.97,1.91-8.1,3.97-12.36,5.89-1.47.74-2.94,1.32-4.56,2.06-5.45,2.65-11.04,5.15-16.78,7.51-70.65,30.62-152.49,53.72-240.95,68.59-10.75,1.77-21.34,3.39-32.23,5-10.6,1.47-21.2,2.94-31.94,4.12-24.43,3.09-49.31,5.3-74.48,7.06-10.6.74-21.2,1.33-31.79,1.77-10.16.59-20.46.88-30.76,1.03-13.98.59-28.11.74-42.39.74-22.37,0-44.75-.44-66.68-1.47,18.1,14.28,36.36,27.82,54.61,40.48,2.35,1.77,4.86,3.53,7.36,5.15h4.71c4.12,0,8.39,0,12.51-.15,10.89,0,21.64-.15,32.38-.59,25.76-.59,51.07-1.91,76.24-3.97,10.89-.74,21.64-1.77,32.38-2.94,10.74-.88,21.64-2.06,32.23-3.39,114.96-13.84,221.37-40.62,311.31-78.75,5.74-2.36,11.48-4.86,17.07-7.51,3.53-1.47,7.06-3.09,10.45-4.71,2.21-1.03,4.27-2.06,6.48-3.09,14.28-6.92,27.97-13.98,40.92-21.2,5.59-3.24,10.89-6.33,16.19-9.57,5.59-3.39,11.04-6.77,16.34-10.3,94.94-61.82,146.16-137.03,146.16-217.11s-54.02-159.26-153.81-221.96Z"/>
      <path class="st14" d="M435.52,1094.83c12.81,7.07,26.2,13.84,40.18,20.46,5.59,2.65,11.33,5.15,17.07,7.65,5.74,2.5,11.48,5,17.37,7.51,79.34,32.53,173.39,57.26,277.31,71.53-20.02-17.52-39.89-36.06-59.32-55.34h-.15c-75.07-14.72-143.81-35.03-203.56-60.05-5.89-2.35-11.63-4.71-17.22-7.36-5.74-2.5-11.48-5.15-17.07-7.65-13.84-6.77-27.08-13.54-39.74-20.75-5.59-2.94-10.89-6.18-16.19-9.27-5.59-3.39-11.04-6.77-16.34-10.3-78.16-51.22-124.38-112.75-124.38-178.25s43.13-122.76,116.58-172.95c5.15-3.53,10.45-7.06,15.9-10.45,5.15-3.39,10.6-6.62,16.04-9.72,12.36-7.36,25.46-14.28,39.3-21.05,5.45-2.8,11.19-5.45,16.93-8.1,5.45-2.5,11.19-5,16.78-7.36,69.03-29.88,150.87-53.58,240.8-69.03,19.43-18.69,39.15-36.65,59.02-54.02-118.49,14.13-224.91,41.36-312.78,78.75-5.74,2.35-11.48,4.86-17.07,7.36-5.74,2.65-11.33,5.3-16.93,7.95-13.98,6.62-27.38,13.69-40.18,20.9-5.59,3.24-11.04,6.33-16.34,9.57-5.59,3.39-10.89,6.77-16.19,10.3-92.14,60.2-146.01,135.42-146.01,217.84,0,58.29,26.94,112.89,75.21,161.17,21.78,21.78,47.98,42.24,78.01,61.23,5.3,3.53,10.89,6.77,16.49,10.16,5.3,3.09,10.89,6.18,16.49,9.27Z"/>
    </g>
    <g>
      <path class="st13" d="M551.22,941.01c-9.57-13.69-18.99-27.23-27.97-40.92-23.26,39.59-43.13,78.45-59.17,116.28,12.51,7.21,25.76,14.13,39.74,20.75,13.1-31.2,28.85-63.29,47.39-96.12Z"/>
      <path class="st10" d="M622.75,1395.83c-51.22,0-93.61-13.69-122.61-42.83-42.98-42.98-52.55-114.66-33.56-201.65-14.13-6.33-27.67-13.1-40.77-20.17-24.88,106.71-12.36,196.2,43.72,252.28,37.98,37.97,91.26,55.93,154.84,55.93,92.88,0,207.69-38.56,328.38-109.8-13.69-8.98-27.23-18.25-40.62-27.82-107.74,60.64-209.45,94.05-289.38,94.05Z"/>
      <path class="st9" d="M954.67,436.74c-5.45,3.68-10.75,7.65-16.04,11.63-2.8,1.91-5.45,3.97-8.24,6.03-8.68,6.33-17.22,12.95-25.91,19.72-8.39,6.48-16.78,13.25-25.32,20.17-19.72,16.04-39.59,32.97-59.17,50.63-8.1,7.21-16.04,14.57-23.99,22.08-7.8,7.06-15.6,14.42-23.26,22.08-6.18,5.89-12.36,11.92-18.55,18.1-60.64,60.64-114.07,123.05-159.7,185.31,7.95,13.39,16.49,26.79,25.17,40.33,46.51-65.79,102-132.03,165-195.03,20.46-20.46,41.07-40.04,62.11-58.73,7.95-7.21,15.9-14.13,23.84-20.9,8.1-7.07,16.34-13.98,24.58-20.61,20.02-16.63,40.18-32.38,60.35-47.25,7.8-5.89,15.6-11.48,23.26-16.93,1.03-.74,1.91-1.33,2.8-1.91,4.56-3.24,8.98-6.33,13.39-9.27,4.56-3.09,8.98-6.18,13.54-9.13,1.03-.88,2.21-1.47,3.24-2.21,13.84-9.13,27.52-17.96,41.21-26.2,5.74-3.53,11.48-6.92,17.22-10.3,5.89-3.53,11.63-6.77,17.52-10.01,107.89-60.64,209.6-94.05,289.52-94.05,51.37,0,93.61,13.69,122.76,42.83,43.13,43.13,52.4,115.1,33.41,202.39-1.18,5.89-2.65,11.92-4.27,18.1-1.47,5.89-3.09,11.92-5,17.96-3.83,13.69-8.54,27.82-13.98,42.24-1.91,5.74-4.12,11.48-6.48,17.37-2.21,5.59-4.56,11.33-7.06,17.07-13.25,31.5-29.14,63.88-47.84,97-3.24,5.89-6.62,11.78-10.16,17.66-3.24,5.74-6.77,11.48-10.3,17.22-8.24,13.69-16.93,27.38-26.05,41.07-3.53,5.45-7.36,11.04-11.19,16.49-3.68,5.45-7.51,10.89-11.48,16.49-46.22,65.5-101.41,131.29-164.27,194.14-20.61,20.61-41.36,40.33-62.56,59.17,25.02-2.5,49.6-5.74,73.6-9.72,6.48-6.18,12.95-12.51,19.43-18.99,60.35-60.35,113.48-122.46,158.97-184.28,3.97-5.45,7.95-11.04,11.92-16.49l11.48-16.34c9.42-13.69,18.55-27.52,27.23-41.07,3.68-5.74,7.21-11.48,10.75-17.22,3.53-5.89,7.06-11.77,10.45-17.52,23.55-39.74,43.42-78.89,59.61-116.87,2.5-5.74,4.86-11.48,7.21-17.22,2.21-5.89,4.42-11.63,6.48-17.37,5.45-14.42,10.3-28.55,14.42-42.54,1.91-6.03,3.53-12.07,5.3-18.1,1.62-6.18,3.09-12.36,4.42-18.4,25.02-106.86,12.51-196.65-43.57-252.87-37.98-37.83-91.26-55.93-154.84-55.93-92.88,0-207.83,38.56-328.53,109.95-5.74,3.24-11.48,6.77-17.22,10.45-5.74,3.39-11.48,6.92-17.22,10.74-13.69,8.54-27.52,17.66-41.21,27.23-5.59,3.83-11.19,7.8-16.78,11.78Z"/>
    </g>
    <g>
      <path class="st16" d="M1448.64,916.43c22.67,40.04,41.65,79.34,56.82,117.31,14.13-7.07,27.38-14.43,39.74-21.78-18.11-44.89-41.21-90.82-68.44-136.74-8.98,13.69-18.25,27.38-28.11,41.21Z"/>
      <path class="st11" d="M450.83,561.85c2.94-1.47,6.04-2.8,8.98-4.12-16.78-89.79-3.09-160.58,40.62-204.3,31.94-31.94,78.01-46.95,133.65-46.95,84.63,0,191.05,34.74,302.48,97.88,13.69-9.72,27.52-19.13,41.36-28.11-55.2-32.82-110.39-59.46-164.12-78.89-65.5-23.7-125.7-35.47-178.54-35.47-69.18,0-125.85,20.16-166.03,60.35-56.52,56.37-73.6,145.57-50.34,256.11,10.3-5.74,20.9-11.19,31.94-16.49Z"/>
      <path class="st12" d="M1129.67,539.48c8.1,6.77,16.04,13.69,24.14,20.75,7.8,6.77,15.75,13.84,23.55,21.05,16.19,14.87,32.38,30.17,48.28,46.07,58.44,58.44,110.1,119.67,153.81,181.05,8.98-13.69,17.37-27.38,25.32-41.07-43.27-58.58-93.02-116.28-147.93-171.18-1.18-1.18-2.21-2.21-3.39-3.24-7.65-7.8-15.45-15.31-23.11-22.67-7.95-7.65-16.04-15.16-23.99-22.37-19.28-17.81-38.86-34.74-58.58-51.08-8.54-7.06-17.07-13.98-25.61-20.75-8.68-6.92-17.37-13.54-26.2-20.16-3.53-2.65-7.06-5.3-10.6-7.8-3.68,2.06-7.36,4.27-11.04,6.62-9.13,5.45-18.55,11.33-27.82,17.37-.59.44-1.33.88-2.06,1.33,8.1,5.89,16.34,11.78,24.43,17.96,20.31,15.16,40.62,31.2,60.79,48.13Z"/>
      <path class="st15" d="M1540.19,1147.52c-.29.15-.59.29-.88.44,16.49,87.43,4.86,160-39.74,204.59-31.65,31.79-77.72,47.69-134.83,47.69-47.4,0-102.59-11.04-163.53-33.12-45.33-16.34-91.85-38.27-138.65-64.91-5.89-3.24-11.63-6.62-17.37-10.16-5.74-3.39-11.63-6.92-17.37-10.45-13.39-8.24-26.79-16.93-40.18-26.05-1.33-.74-2.65-1.62-3.97-2.65-4.12-2.8-8.39-5.59-12.51-8.68-4.86-3.24-9.71-6.62-14.57-10.16-.44-.29-1.03-.74-1.47-1.18-8.24-5.89-16.49-11.92-24.73-18.1-20.31-15.31-40.48-31.5-60.5-48.43-8.24-6.77-16.34-13.84-24.43-21.2-7.95-6.77-15.75-13.84-23.55-21.05-16.04-14.72-31.94-29.88-47.54-45.48-57.99-57.99-109.8-118.78-154.26-180.46-3.83-5.3-7.51-10.6-11.19-15.9-3.97-5.59-7.8-11.19-11.48-16.78-9.13-13.39-17.81-26.79-26.05-40.33-3.68-5.74-7.06-11.48-10.45-17.22-3.53-5.89-7.07-11.92-10.3-17.81-22.37-39.15-41.21-78.16-56.37-116.43-13.84,6.77-26.94,13.84-39,21.2,17.96,44.45,40.77,90.08,67.85,135.56,3.53,5.89,7.06,11.92,10.74,17.81,3.53,5.74,7.06,11.33,10.74,17.07,8.68,13.54,17.66,27.08,27.08,40.62,3.83,5.59,7.8,11.19,11.92,16.78,3.68,5.3,7.65,10.6,11.63,15.9,43.27,58.58,93.02,116.28,147.93,171.18l2.5,2.5c7.65,7.51,15.31,15.01,22.96,22.37,8.1,7.8,16.34,15.45,24.43,22.81,19.72,18.1,39.59,35.47,59.61,51.96,8.39,7.06,16.78,13.84,25.32,20.46,8.68,7.07,17.52,13.84,26.35,20.31,3.39,2.65,6.77,5.3,10.3,7.8,5.3,3.97,10.6,7.8,15.9,11.63,5.59,3.97,11.04,7.95,16.63,11.63,13.39,9.42,26.79,18.4,40.33,27.08,5.74,3.68,11.48,7.21,17.22,10.89,5.74,3.53,11.63,7.07,17.37,10.45,55.2,32.82,110.39,59.46,164.12,78.89,65.65,23.84,125.7,35.62,178.54,35.62,69.18,0,125.85-20.31,166.03-60.49,56.67-56.52,73.6-146.01,50.05-256.85-12.95,7.21-26.49,13.98-40.62,20.61Z"/>
    </g>
  </g>
</svg>